<svg width="76" height="76" viewBox="0 0 76 76" fill="none" xmlns="http://www.w3.org/2000/svg">
<g id="Group 8">
<path id="Vector" d="M38 66.347C22.3698 66.347 9.65302 53.6302 9.65302 38C9.65302 22.3698 22.3698 9.65302 38 9.65302C53.6302 9.65302 66.347 22.3698 66.347 38C66.347 53.6302 53.6302 66.347 38 66.347ZM38 0C17.015 0 0 17.015 0 38C0 58.985 17.015 76 38 76C58.985 76 76 58.9884 76 38C76 17.0116 58.9884 0 38 0Z" fill="white"/>
<path id="Vector_2" d="M31.7949 62.8045C33.0806 61.2282 34.3936 62.2437 34.3936 62.2437C34.3936 62.2437 32.9985 63.0439 32.6395 63.909C32.4104 64.4698 32.2326 64.8391 32.1368 65.034C34.0278 65.4443 35.9905 65.6666 38.0011 65.6666C38.2781 65.6666 38.5517 65.6529 38.8252 65.6461L40.0699 65.4683C40.1007 65.4375 37.7618 65.0819 37.6694 63.8338C37.5737 62.5857 39.3586 62.2027 40.8085 63.4542C42.2241 64.6715 43.903 64.8391 45.0827 64.7433C45.4897 64.6339 45.8932 64.5211 46.2932 64.3946C45.0759 64.1415 43.8176 62.2814 41.6086 61.2555C42.2344 61.4299 42.313 60.9341 44.0535 62.0488C44.7647 62.5036 45.2503 62.7738 46.218 62.9721C48.0337 63.3448 49.3673 61.7411 51.0325 62.3771C50.6838 60.3255 47.3532 60.9478 46.3411 60.6332C45.3392 60.3186 44.6929 58.9885 43.9509 58.2738C42.3472 56.7351 41.8856 55.9657 41.612 55.1006C40.1998 50.6006 40.1998 48.6139 40.6307 47.188C40.8153 46.8666 40.9658 46.6341 41.0376 46.5076C41.6975 45.3381 42.4806 44.22 43.3423 43.16C43.6432 42.7873 43.9578 42.4248 44.2758 42.0658C44.9323 41.7546 45.6367 41.5358 46.3719 41.4161C47.1754 41.2861 48.0132 41.2793 48.8475 41.3819C49.6819 41.4845 50.5162 41.693 51.3266 41.9871C51.7301 42.1341 52.1302 42.3051 52.52 42.4932C52.9098 42.6847 53.2928 42.8898 53.6586 43.1326C53.3338 42.8385 52.9816 42.5718 52.6191 42.3188C52.2567 42.0692 51.8806 41.8332 51.4907 41.6212C50.7111 41.1938 49.8802 40.8382 49.0048 40.592C48.1295 40.3458 47.2096 40.2056 46.2727 40.2124C46.1975 40.2124 46.1188 40.2124 46.0402 40.2193C46.0744 40.1851 46.1086 40.1543 46.1393 40.1201C48.1363 38.195 50.3316 36.4511 52.6328 34.8542C53.7852 34.0541 54.9649 33.2915 56.1651 32.5666C57.3687 31.8417 58.5929 31.1441 59.8512 30.5081C59.4717 30.4329 57.2696 31.64 56.0044 32.2725C54.7426 32.9051 53.4979 33.5788 52.2738 34.29C51.5967 34.6867 50.9231 35.0936 50.2597 35.5176C50.2597 35.5073 50.2666 35.4971 50.27 35.4902C50.5025 34.7277 50.5504 33.9412 50.4923 33.1821C50.4341 32.4196 50.2803 31.681 50.0648 30.9629C49.8494 30.2448 49.5827 29.5473 49.2476 28.8839C49.5109 29.578 49.7058 30.2927 49.846 31.0176C49.9828 31.7391 50.0614 32.4709 50.0443 33.1958C50.0272 33.9173 49.9076 34.6285 49.6374 35.2645C49.4528 35.7022 49.1929 36.0955 48.8715 36.4237C47.6268 37.2649 46.4129 38.1642 45.2435 39.1251C44.6451 39.6209 44.0569 40.1338 43.4825 40.6638C43.4825 40.6638 43.4756 40.6638 43.4688 40.6672V40.6741C42.9935 41.1186 42.525 41.5768 42.0737 42.0555C41.0752 43.1053 40.1417 44.2302 39.3176 45.4544C39.1124 45.7587 38.9175 46.0665 38.726 46.3845L38.3602 37.918C38.4388 37.6068 38.0319 20.2909 37.6182 16.468C37.5976 16.2697 37.4198 16.4372 37.4198 16.4372L37.1429 31.3288C36.671 30.4739 36.0828 29.6977 35.4331 28.9967C34.7322 28.2376 33.9525 27.5606 33.1319 26.9519C32.3112 26.3399 31.4495 25.7962 30.5639 25.3003C31.4017 25.8714 32.2086 26.4869 32.9609 27.1605C33.7132 27.8307 34.4107 28.5591 35.0228 29.3455C35.6315 30.132 36.1546 30.98 36.5274 31.8793C36.712 32.3273 36.8625 32.7889 36.9616 33.2539C37.0027 33.4386 37.0334 33.6266 37.054 33.8113L36.6334 46.0699C36.541 45.9194 36.4487 45.769 36.3564 45.6185C35.5768 44.3978 34.6706 43.2831 33.6858 42.2572C32.701 41.2314 31.641 40.3013 30.5331 39.4431C29.3534 38.5301 28.119 37.7026 26.8538 36.9435C26.6589 36.7486 26.4777 36.5366 26.317 36.3109C25.999 35.8595 25.7562 35.3432 25.6023 34.7961C25.445 34.249 25.3698 33.6711 25.3664 33.0864C25.3664 32.5016 25.4211 31.9135 25.5647 31.339C25.3493 31.893 25.2159 32.4777 25.1407 33.0727C25.0689 33.6677 25.0689 34.2797 25.1646 34.8884C25.2296 35.3261 25.3493 35.7604 25.5203 36.1775C24.8329 35.798 24.1354 35.4355 23.4344 35.0901C22.1932 34.4815 20.9314 33.9241 19.6525 33.4181C18.3702 32.912 17.0777 32.4469 15.7578 32.0605C17.0401 32.5495 18.2882 33.1206 19.5158 33.7224C20.7433 34.3276 21.9435 34.9807 23.1164 35.6783C25.4553 37.0734 27.6847 38.6532 29.6714 40.4655C29.9005 40.6741 30.1296 40.8895 30.3519 41.1083C30.2664 41.1083 30.1775 41.1015 30.0886 41.1049C29.1517 41.1049 28.2319 41.2519 27.3599 41.5084C26.4879 41.7614 25.6604 42.1239 24.8842 42.5582C24.4978 42.777 24.1217 43.0129 23.7627 43.266C23.4036 43.5224 23.0549 43.7891 22.73 44.0866C23.0925 43.8439 23.4754 43.6319 23.8653 43.4369C24.2551 43.2455 24.6517 43.0711 25.0552 42.9206C25.8622 42.6197 26.6931 42.4009 27.5275 42.2914C28.3618 42.182 29.1995 42.182 30.0065 42.3051C30.7212 42.4145 31.4051 42.6197 32.0479 42.9104C32.1779 43.0608 32.3044 43.2113 32.4309 43.3651C33.2687 44.391 34.5304 48.2207 33.8226 53.3396C33.6072 54.9125 32.3146 57.3574 31.8154 57.3848C27.0693 57.6583 27.2505 60.8897 23.1164 61.0162C25.51 63.2969 30.0305 60.3665 30.0305 60.3665C30.0305 60.3665 30.41 61.3513 28.5157 62.0454C27.4385 62.4387 26.5119 62.4592 25.7494 62.8079C26.9051 63.379 28.1053 63.8714 29.3466 64.2817C30.4203 64.1791 31.2854 63.4029 31.7744 62.8079" fill="white"/>
<path id="Vector_3" d="M7.48455 46.6838L6.9375 47.7598L7.05333 47.8187L7.60038 46.7427L7.48455 46.6838Z" fill="#1E1E1E"/>
<path id="Vector_4" d="M7.90757 48.3263C7.9999 48.2956 8.06828 48.2409 8.11274 48.1622C8.15719 48.0801 8.17429 47.981 8.16403 47.8613C8.10248 47.7587 8.02725 47.6903 7.94519 47.6527C7.86312 47.6151 7.77421 47.6117 7.68189 47.639C7.59982 47.6664 7.51092 47.7279 7.40834 47.8271C7.30917 47.9263 7.20317 48.0562 7.09375 48.2169C7.27498 48.2785 7.43569 48.3195 7.57589 48.34C7.71608 48.3605 7.82551 48.3571 7.90757 48.3298" fill="#1E1E1E"/>
<path id="Vector_5" d="M6.37762 48.8452L5.84375 49.9277L5.96335 49.9867L6.49722 48.9041L6.37762 48.8452Z" fill="#1E1E1E"/>
<path id="Vector_6" d="M6.54988 46.9392C6.47123 46.8947 6.36865 46.8776 6.24897 46.8913C6.14639 46.9529 6.078 47.0247 6.03696 47.1067C5.99935 47.1888 5.99251 47.2777 6.02329 47.37C6.05064 47.4521 6.11219 47.5478 6.21477 47.647C6.31394 47.7496 6.44388 47.8522 6.60117 47.9582C6.66614 47.7769 6.70717 47.6162 6.72769 47.476C6.7482 47.3358 6.74136 47.2264 6.71401 47.1443C6.68323 47.052 6.62852 46.9836 6.54988 46.9392Z" fill="#1E1E1E"/>
<path id="Vector_7" d="M6.34147 48.4561C6.16366 48.3911 6.00295 48.3501 5.86276 48.3296C5.72256 48.3091 5.61314 48.3125 5.53107 48.3399C5.43875 48.3706 5.37036 48.4253 5.32591 48.504C5.28145 48.5826 5.26436 48.6852 5.27803 48.8049C5.33958 48.9075 5.41139 48.9759 5.49346 49.0135C5.57552 49.0511 5.66443 49.0545 5.75675 49.0272C5.83882 48.9998 5.92772 48.9383 6.02689 48.8425C6.12605 48.7433 6.22863 48.6134 6.34147 48.4561Z" fill="#1E1E1E"/>
<path id="Vector_8" d="M5.1267 47.4533L5.06641 47.5723L6.14 48.1165L6.20029 47.9975L5.1267 47.4533Z" fill="#1E1E1E"/>
<path id="Vector_9" d="M7.22923 49.0202C7.13006 48.921 7.00355 48.8184 6.84283 48.709C6.77786 48.8902 6.73683 49.0475 6.71631 49.1877C6.6958 49.3279 6.69922 49.4373 6.72657 49.5194C6.75735 49.6117 6.81206 49.6801 6.89412 49.7246C6.97619 49.769 7.07535 49.7827 7.19503 49.7724C7.2942 49.7109 7.366 49.6391 7.40362 49.5536C7.44123 49.4715 7.44807 49.3826 7.4173 49.2937C7.38994 49.2082 7.32839 49.1159 7.22923 49.0167" fill="#1E1E1E"/>
<path id="Vector_10" d="M7.03527 48.4947C7.07973 48.4092 7.08657 48.3169 7.05579 48.2211C7.02502 48.1288 6.96689 48.0604 6.8814 48.016C6.79592 47.9715 6.70359 47.9647 6.61127 47.9954C6.51552 48.0262 6.44713 48.0844 6.40268 48.1733C6.35823 48.2587 6.35139 48.3511 6.38217 48.4434C6.41294 48.5357 6.47107 48.6041 6.55656 48.6486C6.64204 48.693 6.73437 48.6998 6.83011 48.6691C6.92243 48.6383 6.99082 48.5802 7.03527 48.4913" fill="#1E1E1E"/>
<path id="Vector_11" d="M7.29641 48.5527L7.23828 48.669L8.3154 49.2161L8.37353 49.0998L7.29641 48.5527Z" fill="#1E1E1E"/>
<path id="Vector_12" d="M11.368 58.1197C11.898 58.701 12.3664 58.8481 12.9033 58.4685C13.5872 57.9864 13.4299 57.323 12.6947 56.2835C12.4656 55.9587 11.8193 55.0799 11.7168 54.9363C11.6039 54.779 11.4842 54.5806 11.3782 54.4199C11.1149 54.6353 10.9337 54.8029 9.91814 55.521C9.09748 56.1023 8.64612 56.3758 8.35547 56.5571C8.42044 56.6425 8.5025 56.728 8.56405 56.8169C8.6256 56.9058 8.68031 57.005 8.73844 57.1008C8.98464 56.899 9.31633 56.6289 9.95234 56.1741L10.7627 57.323C11.3988 58.2189 9.82924 58.7318 10.7183 59.9902C10.9235 60.2808 11.156 60.4415 11.3953 60.5304L11.4193 60.4757C11.2175 60.3936 11.0671 60.2706 10.9508 60.103C10.6567 59.6756 10.9953 59.1969 11.2209 58.6976C11.303 58.513 11.368 58.3283 11.368 58.1129M10.1746 56.0134C11.0124 55.4218 11.2962 55.2337 11.5253 55.0935L12.4724 56.434C13.0606 57.2683 12.9751 57.6889 12.5648 57.9795C12.1544 58.2702 11.727 58.2121 11.1389 57.3743L10.1746 56.0134Z" fill="#1E1E1E"/>
<path id="Vector_13" d="M14.5866 61.478L13.6633 60.5275C13.9403 60.2607 14.2378 59.9974 14.5148 59.7376L15.9612 61.2284C16.1219 61.3926 16.3134 61.6285 16.2826 61.7653L16.3202 61.7926L16.5185 61.4951C16.5356 61.4644 16.5356 61.4404 16.5083 61.4131C15.8483 60.7292 15.4483 60.3531 15.1815 60.0761C14.8977 59.7854 14.5558 59.4093 14.2788 59.1152C14.0805 59.3443 13.9471 59.5085 13.1675 60.2642C12.5383 60.8762 12.1896 61.1703 11.957 61.3686C12.234 61.649 12.593 61.9944 12.87 62.2782C13.1709 62.5894 13.53 62.9894 14.1489 63.6254C14.2036 63.6802 14.2207 63.6904 14.2925 63.6631L14.7199 63.5194L14.7062 63.475C14.4156 63.475 14.2241 63.3177 13.9232 63.0065L12.5759 61.6182C12.8734 61.3208 13.1709 61.0062 13.4718 60.7121L14.3951 61.6627C14.5319 61.8029 14.8806 62.1722 14.9593 62.3158C15.0106 62.2577 15.0413 62.2235 15.0858 62.179C15.1303 62.138 15.1713 62.1038 15.226 62.0594C15.0858 61.9739 14.7233 61.6148 14.59 61.4746" fill="#1E1E1E"/>
<path id="Vector_14" d="M18.996 65.5748C18.8695 65.7834 18.7669 65.951 18.3019 66.5699C17.9804 66.4981 17.6043 66.2997 17.2658 66.0399C16.3699 65.3526 16.1237 64.3883 16.6879 63.6565C17.276 62.8906 18.2266 63.0239 19.061 63.6634C19.7004 64.1558 20.0116 64.7165 19.9876 65.1577L20.0389 65.1782L20.2749 64.7713C20.2954 64.72 20.2715 64.6584 20.2441 64.6105C20.0013 64.1934 19.6423 63.8172 19.2149 63.489C18.0112 62.5657 16.8486 62.4392 16.1955 63.2906C15.5014 64.1968 16.0109 65.3697 17.1188 66.2177C17.4333 66.4604 17.765 66.6417 18.0864 66.7853C18.2711 66.8639 18.4592 66.9289 18.6301 66.987C19.1807 66.269 19.3174 66.1424 19.4952 65.9544C19.4098 65.8962 19.3174 65.8381 19.2388 65.7766C19.1567 65.715 19.0781 65.6398 18.9994 65.5748" fill="#1E1E1E"/>
<path id="Vector_15" d="M21.7132 65.3204C21.6243 65.2691 21.5423 65.1973 21.4568 65.1426C21.3234 65.4161 21.2345 65.6076 20.6737 66.5343C20.2189 67.2866 19.9556 67.6593 19.7812 67.9089C19.8736 67.9568 19.9727 68.0012 20.0616 68.0525C20.1437 68.1038 20.2292 68.1722 20.3147 68.2303C20.4549 67.9602 20.6635 67.5533 21.1182 66.801C21.679 65.8743 21.809 65.7068 21.9902 65.4606C21.9013 65.4127 21.7987 65.3683 21.7166 65.317" fill="#1E1E1E"/>
<path id="Vector_16" d="M25.0619 66.9483C23.7421 66.3499 22.5316 66.5825 22.1041 67.5228C21.663 68.4939 22.3743 69.5061 23.6019 70.0634C24.9149 70.6584 26.1356 70.4191 26.5631 69.4787C27.0042 68.511 26.2861 67.5023 25.0619 66.9483ZM25.9613 69.2633C25.5612 70.1455 24.6243 70.2823 23.7147 69.8651C22.7641 69.4343 22.3093 68.6136 22.7025 67.7519C23.106 66.8594 24.0395 66.7295 24.9491 67.1432C25.8997 67.5741 26.3579 68.3982 25.9647 69.2633" fill="#1E1E1E"/>
<path id="Vector_17" d="M31.4246 69.1962C31.3323 69.6613 31.2434 70.0442 31.1442 70.4067C31.0416 70.7931 30.9322 71.1624 30.8125 71.583C30.5561 71.2718 30.2141 70.8136 29.8106 70.328C29.1199 69.5074 28.3608 68.4884 28.1762 68.2388V68.2285L28.118 68.2148C27.9813 68.8269 27.8171 69.5279 27.6462 70.1708C27.5196 70.6426 27.3931 71.0803 27.2734 71.4428C27.3247 71.4462 27.3897 71.4599 27.4615 71.477C27.5265 71.4941 27.5949 71.518 27.6462 71.5419C27.7522 70.9982 27.8753 70.4785 28.012 69.9656C28.0838 69.6989 28.1556 69.4356 28.2309 69.1757C28.5318 69.5416 28.966 70.1126 29.4687 70.7144C30.0158 71.3744 30.6826 72.2669 30.8638 72.5028L30.9185 72.5165C31.0382 71.9591 31.1682 71.4394 31.2981 70.9504C31.452 70.3657 31.6127 69.8186 31.7939 69.2988C31.7426 69.2954 31.6708 69.2817 31.6024 69.2646C31.534 69.2475 31.4691 69.2236 31.4212 69.1996" fill="#1E1E1E"/>
<path id="Vector_18" d="M34.8278 69.6875C34.7731 69.6807 34.6637 69.6875 34.5645 69.6738C34.4619 69.6636 34.3046 69.6328 34.2021 69.6191L34.1952 69.6704C34.3354 69.6944 34.4175 69.7286 34.4619 69.8209C34.4619 69.8209 34.4631 69.8243 34.4654 69.8311C33.7575 70.7168 32.8411 71.8076 32.1094 72.6487C32.1572 72.6453 32.2496 72.6487 32.3419 72.659C32.4342 72.6693 32.5197 72.6829 32.571 72.7C32.7727 72.4162 32.995 72.1153 33.2275 71.8076L35.5014 72.0469C35.6485 72.382 35.7818 72.7171 35.9186 73.0522C36.0793 73.0591 36.1751 73.0625 36.2776 73.0762C36.3802 73.0864 36.4828 73.1035 36.6401 73.1309C36.0212 71.9546 35.5801 71.0143 35.0774 69.879C35.0159 69.7286 34.968 69.7012 34.8278 69.6875ZM33.4156 71.5648C33.8157 71.0485 34.226 70.5321 34.5885 70.0773C34.8791 70.6552 35.139 71.216 35.3818 71.7734L33.4156 71.5682V71.5648Z" fill="#1E1E1E"/>
<path id="Vector_19" d="M40.4313 72.7586L38.366 72.8235C38.3455 72.5431 38.3181 72.1157 38.2942 71.4523C38.26 70.3684 38.2771 70.1564 38.2942 69.8555C38.1916 69.8623 38.0856 69.8828 37.9865 69.8862C37.8839 69.8862 37.7745 69.876 37.6719 69.876C37.7061 70.1769 37.7403 70.3889 37.7745 71.4694C37.8018 72.3482 37.7881 72.8064 37.7745 73.1108C37.9557 73.1005 38.1643 73.0766 38.3455 73.0697C38.5267 73.0629 38.8242 73.0697 40.7391 73.0116C40.7904 73.0116 40.8109 72.9979 40.8314 72.9603L41.0434 72.5226L41.0024 72.5055C40.8006 72.7346 40.6775 72.7483 40.4313 72.7551" fill="#1E1E1E"/>
<path id="Vector_20" d="M46.8325 71.8455C45.5092 72.1703 44.4116 71.6984 44.1551 70.6555C43.8918 69.5715 44.7399 68.7919 45.9777 68.491C46.8907 68.2687 47.6019 68.385 47.9746 68.7064L48.0225 68.6859L47.8242 68.238C47.79 68.1867 47.7148 68.1662 47.6566 68.1593C47.0993 68.067 46.5522 68.1115 45.9367 68.2619C44.2167 68.6825 43.2285 69.6399 43.5191 70.8299C43.8269 72.0814 45.2665 72.4815 46.8702 72.0882C47.4925 71.9344 47.9917 71.7189 48.4568 71.4454C48.5525 71.3873 48.5799 71.3667 48.5799 71.2983V70.8778L48.5286 70.8709C48.1661 71.3394 47.5951 71.6608 46.8257 71.8489" fill="#1E1E1E"/>
<path id="Vector_21" d="M52.3731 69.7294L50.5915 70.485C50.4206 70.0987 50.2359 69.7088 50.0718 69.3224L51.2925 68.8061C51.4738 68.7309 51.9422 68.536 52.1064 68.5155C52.0722 68.4471 52.0482 68.406 52.0243 68.3479C52.0004 68.2898 51.9867 68.2419 51.9627 68.1735C51.8328 68.2727 51.3678 68.4813 51.1899 68.5565L49.9692 69.0728C49.8188 68.7172 49.6854 68.3479 49.5418 67.9957L51.4567 67.1853C51.6687 67.093 51.9593 67.0007 52.0756 67.0793L52.1132 67.0519L51.908 66.7613C51.8841 66.7339 51.8636 66.7237 51.826 66.7408C50.9506 67.1101 50.4548 67.346 50.0992 67.4965C49.7264 67.6538 49.2511 67.8384 48.875 67.9923C49.0152 68.2624 49.1212 68.4437 49.5452 69.4421C49.8872 70.2491 50.0376 70.6834 50.1368 70.9706C50.4992 70.8133 50.9506 70.6013 51.313 70.4509C51.7097 70.2833 52.2158 70.0918 53.033 69.743C53.1048 69.7123 53.1219 69.702 53.1219 69.6199L53.1424 69.1686H53.098C52.9954 69.4387 52.78 69.5584 52.3765 69.7294" fill="#1E1E1E"/>
<path id="Vector_22" d="M56.0898 64.25C56.0522 64.2842 55.994 64.3287 55.9325 64.3663C55.8709 64.4039 55.8094 64.4347 55.7615 64.4517C56.0351 64.8381 56.2471 65.1698 56.4454 65.4913C56.654 65.8332 56.8455 66.1683 57.0643 66.5444C56.6608 66.5137 56.0966 66.4453 55.4675 66.4008C54.3972 66.3324 53.1354 66.1786 52.8277 66.1375L52.8208 66.1273L52.7695 66.158C53.1183 66.6778 53.5115 67.283 53.8569 67.8541C54.1099 68.2712 54.3425 68.6645 54.5168 69.003C54.5545 68.9688 54.6092 68.9278 54.6707 68.8902C54.7289 68.856 54.7938 68.8218 54.8451 68.8013C54.5237 68.3465 54.233 67.8985 53.9595 67.4472C53.8159 67.2112 53.6791 66.9753 53.5389 66.7393C54.0108 66.7769 54.7254 66.859 55.5085 66.9103C56.3633 66.9719 57.4712 67.1086 57.7653 67.1394L57.8132 67.1086C57.4952 66.6368 57.2079 66.1854 56.9412 65.7511C56.6266 65.2348 56.3428 64.739 56.0898 64.25Z" fill="#1E1E1E"/>
<path id="Vector_23" d="M58.5183 62.6478L59.4449 61.8818C59.5714 61.7758 59.7082 61.7314 59.8689 61.7758L59.8929 61.7314L59.5714 61.4647C59.5543 61.451 59.5373 61.4646 59.5236 61.4783L56.7402 63.7796C56.7402 63.7796 56.7128 63.8035 56.7265 63.8172L56.9282 64.1831L56.9761 64.1694C56.9658 63.9984 57.0342 63.8753 57.1608 63.7693L58.084 63.0068C58.2481 63.1846 58.4499 63.4035 58.9559 64.0155C59.5167 64.6926 59.78 65.0653 59.9613 65.3081C60.0331 65.2431 60.1049 65.161 60.1835 65.0961C60.2622 65.0311 60.3545 64.973 60.4366 64.9114C60.228 64.6926 59.9134 64.3575 59.3526 63.6839C58.8465 63.0718 58.6653 62.8358 58.5183 62.6409" fill="#1E1E1E"/>
<path id="Vector_24" d="M64.4789 60.2334L64.4379 60.2505C64.455 60.5411 64.3079 60.7395 64.0104 61.0575L62.6974 62.4765C62.3862 62.1927 62.0545 61.9157 61.7468 61.6319L62.6461 60.6608C62.7795 60.5172 63.1282 60.1479 63.2684 60.0624C63.2103 60.0145 63.1693 59.9872 63.1248 59.9427C63.0804 59.9017 63.0462 59.8641 62.9949 59.8094C62.9162 59.953 62.5811 60.3326 62.4478 60.4762L61.5485 61.4473C61.2647 61.184 60.9911 60.9036 60.7141 60.6403L62.1263 59.1152C62.2836 58.9443 62.5093 58.7425 62.6461 58.763L62.67 58.722L62.3623 58.5408C62.3281 58.5237 62.3076 58.5237 62.2802 58.5545C61.6339 59.252 61.2783 59.6692 61.015 59.9496C60.7415 60.2471 60.3824 60.6095 60.1055 60.9036C60.3448 61.0917 60.5158 61.2148 61.3125 61.9499C61.9554 62.5449 62.27 62.88 62.4785 63.0989C62.7418 62.8048 63.0701 62.4287 63.3368 62.1414C63.6309 61.8234 64.0104 61.4439 64.6123 60.7908C64.6636 60.736 64.6738 60.7155 64.643 60.6437L64.4789 60.2231V60.2334Z" fill="#1E1E1E"/>
<path id="Vector_25" d="M67.7388 56.3926C67.4858 56.755 66.9968 56.6114 66.5147 56.5772C66.3471 56.567 66.1864 56.567 66.0223 56.6251C66.3232 56.0233 66.2822 55.6129 65.8171 55.2915C65.2119 54.8743 64.7263 55.1821 64.0732 56.1293C63.892 56.3926 63.4133 57.1277 63.3175 57.2611C63.2218 57.4013 63.0953 57.5586 62.9961 57.692C63.2594 57.8424 63.4475 57.9416 64.3399 58.5536C65.0648 59.0529 65.4239 59.3367 65.6598 59.5248C65.7145 59.4359 65.7624 59.3401 65.8205 59.2546C65.8752 59.1726 65.9505 59.0939 66.012 59.0118C65.7761 58.8682 65.4547 58.6802 64.9007 58.3074L65.5333 57.3876C66.0804 56.5909 66.9695 57.709 67.7046 56.6422C67.8893 56.3755 67.9508 56.1327 67.9474 55.907H67.8927C67.8859 56.0882 67.838 56.2421 67.7422 56.3823M65.4376 57.0594L64.6819 58.157C63.9706 57.668 63.7347 57.4936 63.55 57.3534L64.2921 56.2729C64.7776 55.5685 65.1332 55.524 65.482 55.7634C65.8342 56.0062 65.9197 56.3515 65.4341 57.0594" fill="#1E1E1E"/>
<path id="Vector_26" d="M70.6932 47.9062C70.6112 47.8789 70.5017 47.8789 70.365 47.8994C70.2282 47.9199 70.0675 47.9678 69.8828 48.0327C69.9922 48.19 70.0982 48.3166 70.2008 48.4123C70.3034 48.508 70.3957 48.5696 70.4778 48.5969C70.5701 48.6277 70.659 48.6209 70.7411 48.5833C70.8232 48.5457 70.895 48.4704 70.9565 48.3644C70.9633 48.2448 70.9463 48.1456 70.9018 48.0669C70.8574 47.9883 70.789 47.9336 70.6966 47.9062" fill="#1E1E1E"/>
<path id="Vector_27" d="M69.7305 48.4912L70.2878 49.5581L70.4075 49.4965L69.8467 48.4297L69.7305 48.4912Z" fill="#1E1E1E"/>
<path id="Vector_28" d="M69.8427 48.0193C69.87 47.927 69.8632 47.8347 69.8187 47.7492C69.7743 47.6637 69.7025 47.6056 69.6067 47.5748C69.5144 47.5474 69.4221 47.5543 69.3366 47.5987C69.2511 47.6432 69.193 47.715 69.1622 47.8107C69.1314 47.9031 69.1417 47.9954 69.1862 48.0809C69.2306 48.1664 69.299 48.2245 69.3913 48.2518C69.4871 48.2826 69.5794 48.2724 69.6649 48.2279C69.7504 48.1834 69.8085 48.1116 69.8393 48.0159" fill="#1E1E1E"/>
<path id="Vector_29" d="M69.4907 47.0613C69.5146 47.1981 69.5591 47.3588 69.624 47.5366C69.7813 47.4272 69.9079 47.3212 70.007 47.2186C70.1028 47.116 70.1643 47.0237 70.1917 46.9416C70.2224 46.8493 70.2156 46.7604 70.1746 46.6783C70.1335 46.5962 70.0617 46.5244 69.9591 46.4663C69.8429 46.4595 69.7437 46.4766 69.6617 46.521C69.583 46.5655 69.5283 46.6338 69.4975 46.7262C69.4702 46.8117 69.4702 46.9211 69.4941 47.0613" fill="#1E1E1E"/>
<path id="Vector_30" d="M68.804 47.4133C68.7014 47.3175 68.6091 47.256 68.5271 47.2286C68.4347 47.2013 68.3458 47.2047 68.2638 47.2457C68.1817 47.2867 68.1099 47.3586 68.0483 47.4611C68.0415 47.5808 68.0586 47.68 68.103 47.7586C68.1475 47.8373 68.2159 47.892 68.3082 47.9193C68.3903 47.9433 68.4997 47.9467 68.6399 47.9262C68.7801 47.9057 68.9408 47.8612 69.122 47.7928C69.0092 47.6355 68.9032 47.509 68.8006 47.4133" fill="#1E1E1E"/>
<path id="Vector_31" d="M71.0892 47.013L70.0195 47.5723L70.0813 47.6904L71.151 47.1312L71.0892 47.013Z" fill="#1E1E1E"/>
<path id="Vector_32" d="M67.9248 48.8162L68.9917 48.2588L68.9301 48.1426L67.8633 48.6999L67.9248 48.8162Z" fill="#1E1E1E"/>
<path id="Vector_33" d="M69.2786 47.3383L68.7178 46.2715L68.6016 46.3296L69.1623 47.3999L69.2786 47.3383Z" fill="#1E1E1E"/>
<path id="Vector_34" d="M69.3827 48.293C69.2254 48.4024 69.0989 48.5118 69.0031 48.611C68.9039 48.7136 68.8458 48.8059 68.8185 48.8879C68.7911 48.9803 68.7945 49.0692 68.8356 49.1512C68.8766 49.2333 68.9484 49.3051 69.051 49.3667C69.1707 49.3769 69.2698 49.3598 69.3485 49.312C69.4271 49.2675 69.4818 49.1991 69.5126 49.1068C69.54 49.0213 69.54 48.9119 69.5194 48.7717C69.4989 48.6315 69.4511 48.4742 69.3827 48.2964" fill="#1E1E1E"/>
<path id="Vector_35" d="M6.45524 41.0053C6.44498 40.954 6.43814 40.8822 6.43472 40.8104C6.43472 40.7386 6.43472 40.6702 6.4484 40.6155C5.79871 40.6634 5.16612 40.6941 4.53352 40.7044C4.2121 40.7112 3.88725 40.7112 3.56241 40.7044C3.88383 40.2462 4.41726 39.5315 4.93359 38.7622C5.50464 37.9483 6.29452 36.9225 6.49969 36.6455V36.584C5.84316 36.6216 5.22425 36.6421 4.64636 36.649C3.95906 36.6592 3.31279 36.6558 2.6802 36.625C2.69046 36.6763 2.69729 36.7481 2.69729 36.8199C2.69729 36.8917 2.69729 36.9635 2.68362 37.0148C3.23756 36.9806 3.71628 36.9635 4.1779 36.9533C4.63952 36.9464 5.09089 36.9499 5.59012 36.9464C5.31999 37.3431 4.88914 37.9244 4.47539 38.5365C3.76757 39.5589 2.85801 40.7352 2.63916 41.0121H2.62891V41.0839C3.38802 41.0463 4.22236 41.0121 4.99514 40.9985C5.52515 40.9882 6.02097 40.9916 6.4484 41.0053" fill="#1E1E1E"/>
<path id="Vector_36" d="M4.87429 35.2707C5.92747 35.4451 6.72078 34.491 6.93962 33.1643C7.17556 31.7418 6.62503 30.6237 5.60605 30.4561C4.55628 30.2817 3.76982 31.2358 3.55097 32.5625C3.31503 33.9918 3.8553 35.0997 4.87429 35.2672M3.76982 32.624C3.94079 31.5948 4.61441 30.9348 5.55133 31.0921C6.50877 31.2494 6.88149 32.118 6.71736 33.1062C6.54639 34.1354 5.87276 34.7885 4.93926 34.6347C3.97156 34.4739 3.60569 33.6088 3.7664 32.624" fill="#1E1E1E"/>
<path id="Vector_37" d="M7.5096 29.8279C7.53695 29.7287 7.55747 29.6227 7.59166 29.5236C7.62244 29.4312 7.67373 29.3355 7.71134 29.2397C7.44463 29.1645 7.08559 29.0688 6.44958 28.8636L6.80862 27.8104C7.11978 26.8974 8.27897 27.7318 8.69614 26.5076C8.79872 26.1999 8.7953 25.9503 8.73375 25.7348L8.67904 25.7485C8.72007 25.9263 8.71665 26.087 8.66194 26.2478C8.51491 26.6649 8.00541 26.6581 7.53353 26.7572C7.3694 26.7949 7.21211 26.8393 7.07191 26.9351C7.19843 26.2751 7.04798 25.8921 6.51455 25.7075C5.82041 25.4715 5.43401 25.899 5.06471 26.9864C4.96213 27.2873 4.69884 28.125 4.64413 28.2789C4.58941 28.4396 4.51077 28.6243 4.44922 28.7815C4.74329 28.8568 4.95187 28.8978 5.9777 29.25C6.80862 29.5338 7.22921 29.7116 7.5096 29.8279ZM5.31433 27.0718C5.5913 26.2614 5.91957 26.1247 6.32306 26.2614C6.72655 26.3982 6.90094 26.7094 6.62397 27.5198L6.19312 28.7781C5.37588 28.4977 5.10233 28.3952 4.8869 28.3097L5.31091 27.0718H5.31433Z" fill="#1E1E1E"/>
<path id="Vector_38" d="M6.33489 24.7324L6.3725 24.7016C6.29386 24.5478 6.30411 24.411 6.37934 24.264L6.91277 23.1937C7.13503 23.286 7.40859 23.4057 8.12325 23.7613C8.90971 24.1511 9.30294 24.3871 9.56624 24.5375C9.60385 24.4486 9.63805 24.346 9.68592 24.2537C9.73037 24.1614 9.79534 24.0725 9.84321 23.9836C9.56282 23.8673 9.13881 23.6895 8.35577 23.2997C7.64453 22.9441 7.38123 22.8039 7.16923 22.6876L7.70266 21.6105C7.77446 21.4635 7.88047 21.3677 8.04802 21.3404V21.2891L7.64795 21.1762C7.62743 21.1728 7.61717 21.1899 7.61033 21.2104L5.99979 24.4452C5.99979 24.4452 5.98269 24.476 5.99979 24.4862L6.33489 24.7393V24.7324Z" fill="#1E1E1E"/>
<path id="Vector_39" d="M10.9108 21.9294C10.9655 21.8405 11.0134 21.7448 11.0715 21.6593C11.1262 21.5806 11.2014 21.4986 11.263 21.4165C11.01 21.266 10.6338 21.0438 9.9602 20.5753L11.5502 18.2843C12.2204 18.7562 12.5658 19.0263 12.7949 19.211C12.8496 19.1255 12.8975 19.0263 12.9556 18.9408C13.0103 18.8588 13.0855 18.7801 13.1471 18.698C12.8872 18.5408 12.494 18.3082 11.7725 17.8056C10.8834 17.1867 10.7227 17.0465 10.4902 16.8516C10.4355 16.9405 10.3876 17.0362 10.3329 17.1149C10.2748 17.2003 10.1996 17.279 10.138 17.3611C10.3842 17.5081 10.5723 17.6073 11.3314 18.127L9.74135 20.418C8.98566 19.8948 8.82837 19.7512 8.60611 19.5666C8.5514 19.6555 8.50352 19.7512 8.44881 19.8333C8.39068 19.9188 8.31546 19.9974 8.25391 20.0795C8.5172 20.2299 8.70527 20.3291 9.59432 20.948C10.3158 21.4473 10.6749 21.7345 10.9108 21.9226" fill="#1E1E1E"/>
<path id="Vector_40" d="M13.8067 15.1204C14.5008 15.8487 14.836 16.2522 15.0582 16.5155C15.195 16.3787 15.3591 16.2009 15.5027 16.0641C15.5711 15.9992 15.5301 16.0573 17.5475 14.1458C17.592 14.1048 17.5954 14.0843 17.5852 14.0467L17.4552 13.568L17.4039 13.5816C17.4039 13.886 17.315 13.9851 17.1235 14.1664L15.3318 15.8726C15.0958 15.6504 14.747 15.3016 14.2068 14.7374C13.3485 13.8381 13.2015 13.6363 12.986 13.373C12.9074 13.4551 12.8356 13.544 12.7604 13.6192C12.6817 13.6945 12.586 13.7629 12.5039 13.8347C12.7569 14.0638 12.9484 14.2211 13.8067 15.1204Z" fill="#1E1E1E"/>
<path id="Vector_41" d="M20.1879 12.3203C21.3778 11.5031 21.7984 10.3302 21.2137 9.48219C20.6119 8.60682 19.3775 8.69914 18.2696 9.46167C17.0762 10.2823 16.6522 11.4415 17.2369 12.293C17.8422 13.1717 19.0766 13.0828 20.1879 12.3203ZM18.379 9.66342C19.2373 9.07186 20.181 9.10263 20.7213 9.88568C21.2718 10.6858 20.9025 11.5544 20.0785 12.122C19.2202 12.7135 18.2798 12.6793 17.743 11.8997C17.1856 11.0927 17.5583 10.2242 18.379 9.66" fill="#1E1E1E"/>
<path id="Vector_42" d="M25.1154 8.49666C25.3582 9.00615 24.7221 9.46093 24.2092 9.70713C23.5664 10.0149 22.8004 10.0935 22.4893 9.8952L22.4551 9.92939L22.7833 10.3055C23.2347 10.3055 23.6929 10.2166 24.3084 9.92255C24.8589 9.65926 25.8984 9.03693 25.4881 8.17865C24.8623 6.87243 22.6466 8.8215 22.2499 7.99742C22.0516 7.58025 22.6466 7.16992 23.0979 6.95108C23.6177 6.70146 24.1819 6.57494 24.558 6.74591L24.5956 6.71514L24.3529 6.41081C24.0896 6.38688 23.5869 6.45185 23.0056 6.73224C22.4209 7.01263 21.5113 7.54606 21.8772 8.31201C22.4688 9.543 24.6709 7.57 25.1154 8.50008" fill="#1E1E1E"/>
<path id="Vector_43" d="M32.6457 7.02409C31.5139 6.01195 30.6248 5.16051 29.6264 4.15178C29.5238 4.02526 29.4554 4.02526 29.3152 4.06288C29.2502 4.07997 29.1237 4.12785 29.0109 4.15862C28.9083 4.18598 28.7271 4.21675 28.6245 4.24411L28.6382 4.2954C28.7989 4.26462 28.9117 4.2612 29.004 4.31249C28.58 5.5811 28.0227 7.113 27.5508 8.35083C27.5918 8.33031 27.6807 8.29954 27.7696 8.27902C27.8585 8.25508 27.944 8.23799 27.9987 8.23457C28.115 7.83791 28.2449 7.40707 28.3817 6.9728L31.0454 6.28208C31.3429 6.59325 31.637 6.90441 31.9276 7.21558C32.0781 7.16429 32.1773 7.13693 32.2833 7.10958C32.3824 7.08222 32.4884 7.06171 32.6457 7.03093M28.4809 6.66163C28.7236 5.91962 28.9767 5.17077 29.2092 4.49372C29.7734 5.01689 30.3068 5.53665 30.8232 6.05298L28.4809 6.66163Z" fill="#1E1E1E"/>
<path id="Vector_44" d="M36.8849 3.4082C36.8336 3.42188 36.7618 3.43556 36.69 3.43898C36.6182 3.44582 36.5532 3.44582 36.4985 3.43898C36.5703 3.90744 36.6148 4.30067 36.649 4.67339C36.6832 5.07346 36.7071 5.45643 36.7345 5.8907C36.3857 5.68554 35.9104 5.37095 35.3667 5.05294C34.4366 4.51609 33.3766 3.81511 33.1201 3.64414V3.63388L33.0586 3.64072C33.1372 4.26306 33.2227 4.97772 33.2809 5.64108C33.3219 6.12664 33.3527 6.58484 33.3595 6.9644C33.4108 6.95072 33.4758 6.94046 33.5476 6.93362C33.6125 6.92679 33.6878 6.92679 33.7425 6.93362C33.657 6.38652 33.5954 5.85309 33.551 5.3265C33.5271 5.04952 33.51 4.77939 33.4894 4.50584C33.8964 4.74862 34.4982 5.13843 35.1752 5.53166C35.9138 5.96593 36.8439 6.58142 37.0969 6.73872H37.1516C37.0764 6.16767 37.0183 5.63766 36.9738 5.13159C36.9191 4.52635 36.8849 3.95873 36.8781 3.4082" fill="#1E1E1E"/>
<path id="Vector_45" d="M40.8454 3.67984C41.6489 3.73797 42.22 4.03546 42.4422 4.41501L42.4935 4.40476L42.4662 3.93288C42.4559 3.88159 42.4012 3.84055 42.3499 3.81662C41.9156 3.60119 41.4096 3.48835 40.8727 3.45074C39.3613 3.34474 38.3184 3.87817 38.2466 4.94844C38.1645 6.08711 39.2382 6.78467 40.6334 6.88383C41.0266 6.91119 41.4061 6.88383 41.7549 6.82229C41.9532 6.78467 42.1482 6.7368 42.3191 6.69235C42.3841 5.78962 42.4251 5.60839 42.4696 5.35535C42.367 5.35535 42.2576 5.35535 42.155 5.34852C42.0524 5.34168 41.9464 5.32458 41.8438 5.3109C41.8541 5.55368 41.8575 5.74859 41.8165 6.5248C41.5087 6.64106 41.0847 6.68551 40.6607 6.65473C39.5323 6.57609 38.7971 5.90588 38.8621 4.98264C38.9305 4.01836 39.799 3.60803 40.8488 3.67984" fill="#1E1E1E"/>
<path id="Vector_46" d="M46.4657 7.77165C46.5409 7.78874 46.5614 7.78874 46.6093 7.72378L46.8897 7.37158L46.8521 7.34422C46.6093 7.50493 46.3631 7.47758 45.9391 7.38183L44.0515 6.95783C44.1405 6.5475 44.2123 6.12007 44.3046 5.70974L45.5971 6.00039C45.7886 6.04142 46.281 6.15768 46.428 6.23975C46.4417 6.16452 46.4451 6.11665 46.4588 6.05852C46.4725 5.99697 46.4896 5.9491 46.5101 5.88071C46.346 5.88755 45.8467 5.78497 45.6587 5.74051L44.3661 5.44986C44.4516 5.07373 44.5576 4.69417 44.6431 4.32487L46.6708 4.77966C46.8965 4.83095 47.1872 4.91985 47.235 5.05321H47.2829V4.69759C47.2829 4.65998 47.2692 4.64288 47.2282 4.63262C46.3015 4.42404 45.7613 4.32487 45.3851 4.23939C44.9885 4.15048 44.4961 4.02396 44.1028 3.93164C44.0618 4.23255 44.0413 4.44455 43.8053 5.50115C43.6139 6.35601 43.4839 6.79711 43.3984 7.08776C43.7848 7.16983 44.2738 7.26215 44.6602 7.35106C45.0808 7.4468 45.6005 7.58358 46.4691 7.77849" fill="#1E1E1E"/>
<path id="Vector_47" d="M50.4001 9.13942C50.448 9.15651 50.4719 9.15309 50.5027 9.12916L50.8617 8.80089L50.831 8.7667C50.5574 8.90006 50.4377 8.86928 50.2052 8.7838L48.2664 8.07256C48.3553 7.80242 48.4852 7.39893 48.7143 6.7766C49.0871 5.76103 49.1828 5.56954 49.3127 5.29599C49.2136 5.26521 49.1076 5.24128 49.0152 5.2105C48.9195 5.17631 48.8238 5.12502 48.728 5.08398C48.6494 5.37805 48.5981 5.58322 48.2254 6.60221C47.9244 7.42629 47.7364 7.84346 47.6133 8.12385C47.7843 8.18198 47.986 8.24011 48.1536 8.30166C48.3211 8.36321 48.5981 8.47947 50.3933 9.14625" fill="#1E1E1E"/>
<path id="Vector_48" d="M54.0588 10.9794C54.1272 11.0136 54.1477 11.0204 54.2093 10.9725L54.5683 10.7024L54.5409 10.6648C54.2674 10.7571 54.0349 10.6648 53.6485 10.463L51.9319 9.56374C52.1234 9.1876 52.3046 8.79779 52.4995 8.42507L53.6724 9.04056C53.8434 9.12947 54.2913 9.37225 54.4144 9.48509C54.4452 9.41328 54.4623 9.37225 54.4897 9.31754C54.517 9.26283 54.5478 9.21837 54.5854 9.15682C54.4247 9.11921 53.9699 8.89353 53.7955 8.8012L52.6226 8.18571C52.8005 7.84377 53.0022 7.50183 53.1834 7.17014L55.0265 8.13442C55.2317 8.24042 55.4881 8.40455 55.5018 8.54475L55.5462 8.55843L55.642 8.21307C55.6488 8.17545 55.642 8.15493 55.6044 8.13784C54.7632 7.69673 54.2674 7.46079 53.9254 7.28298C53.5664 7.09491 53.1219 6.8453 52.7663 6.65039C52.65 6.93078 52.5748 7.12911 52.0687 8.08997C51.6618 8.86959 51.4224 9.25941 51.2617 9.51928C51.6139 9.69709 52.0619 9.91594 52.4141 10.1006C52.797 10.3023 53.2655 10.569 54.052 10.9828" fill="#1E1E1E"/>
<path id="Vector_49" d="M56.2954 12.3062C55.7141 11.8924 55.273 11.2599 55.297 10.894L55.2491 10.8803L55.0781 11.3522C55.297 11.7454 55.5979 12.1044 56.1552 12.4977C56.6545 12.8499 57.7008 13.462 58.2513 12.6823C59.0891 11.5026 56.3125 10.5076 56.8391 9.76215C57.1058 9.38601 57.7521 9.70402 58.1659 9.99467C58.6343 10.3264 59.0207 10.7572 59.0549 11.1744L59.0994 11.1915L59.2464 10.8324C59.1404 10.5931 58.8361 10.1827 58.3095 9.81002C57.7829 9.4373 56.8733 8.89703 56.3843 9.59117C55.5945 10.7059 58.3881 11.6736 57.7931 12.5148C57.4649 12.9764 56.7605 12.6379 56.2954 12.3096" fill="#1E1E1E"/>
<path id="Vector_50" d="M62.9189 18.4409C63.0181 18.4956 63.0454 18.5127 63.107 18.4785L63.4763 18.2802L63.4558 18.2289C62.871 18.14 62.3137 17.7912 61.7802 17.2099C60.8604 16.208 60.7442 15.0181 61.5341 14.2897C62.3547 13.534 63.4489 13.9067 64.3106 14.8437C64.9466 15.5344 65.186 16.2149 65.0868 16.697L65.1279 16.7278L65.4254 16.338C65.4527 16.2832 65.439 16.208 65.4151 16.1533C65.227 15.6233 64.9227 15.1617 64.4953 14.6966C63.2951 13.3904 61.982 12.9869 61.0793 13.8178C60.1287 14.6898 60.474 16.143 61.5956 17.3638C62.0299 17.8357 62.4607 18.1673 62.9258 18.4443" fill="#1E1E1E"/>
<path id="Vector_51" d="M64.6353 21.3567C65.4115 22.574 66.5639 23.0391 67.4358 22.4817C68.3317 21.9107 68.2839 20.6763 67.5589 19.541C66.7793 18.3203 65.6372 17.8552 64.7687 18.4092C63.8694 18.9836 63.9138 20.2215 64.6353 21.3567ZM65.138 18.9289C65.9655 18.4023 66.8169 18.8024 67.3538 19.6436C67.9146 20.5224 67.8496 21.4661 67.0494 21.9756C66.2322 22.4988 65.3739 22.0987 64.8371 21.2541C64.2763 20.3753 64.3413 19.4384 65.138 18.9289Z" fill="#1E1E1E"/>
<path id="Vector_52" d="M67.0427 25.908C67.4291 26.8108 68.284 27.4434 69.3987 26.9681C69.8843 26.7595 70.3766 26.5509 70.8793 26.3902C70.8485 26.3457 70.8143 26.2773 70.7836 26.2055C70.7528 26.1337 70.7289 26.0619 70.722 26.0209C70.257 26.2705 69.768 26.4791 69.2824 26.6877C68.3113 27.1014 67.6274 26.568 67.3368 25.8875C67.0632 25.2447 67.1863 24.4206 68.1404 24.0137C68.6225 23.8085 69.1183 23.5965 69.621 23.4426C69.5765 23.3674 69.5252 23.2546 69.4739 23.1417C69.426 23.0289 69.3816 22.9126 69.3611 22.834C68.9029 23.0904 68.4071 23.3059 67.9249 23.511C66.7384 24.0171 66.6803 25.0532 67.0461 25.908" fill="#1E1E1E"/>
<path id="Vector_53" d="M68.2148 28.5785C68.2354 28.6264 68.2593 28.6879 68.2764 28.7597C68.2935 28.8247 68.3072 28.8965 68.3106 28.9512C68.8372 28.7802 69.3535 28.6332 69.863 28.4998C70.1297 28.4314 70.3964 28.3699 70.6597 28.3049C70.4853 28.746 70.1981 29.4026 69.9211 30.1377C69.61 30.9379 69.1552 31.9534 69.0423 32.227L69.056 32.2817C69.6031 32.1142 70.116 31.974 70.6084 31.8474C71.1966 31.697 71.7505 31.5705 72.2942 31.4747C72.2703 31.4269 72.2498 31.3585 72.2327 31.2901C72.2156 31.2217 72.2019 31.1533 72.2019 31.102C71.7505 31.249 71.371 31.3585 71.0085 31.4508C70.6187 31.55 70.246 31.6354 69.8185 31.7346C69.9656 31.3585 70.1981 30.8387 70.4238 30.2506C70.8033 29.2487 71.3231 28.0861 71.4496 27.8057H71.4599L71.4462 27.7441C70.8478 27.9254 70.1537 28.1237 69.5074 28.2878C69.0355 28.4075 68.591 28.5135 68.2148 28.5819" fill="#1E1E1E"/>
<path id="Vector_54" d="M72.0626 32.7197C72.2131 32.8087 72.2746 32.9283 72.2917 33.0925L72.4182 34.2824C72.1789 34.3235 71.8848 34.3713 71.0915 34.4568C70.2196 34.5491 69.7614 34.5628 69.457 34.5799C69.4741 34.6757 69.4981 34.7817 69.5117 34.8842C69.522 34.9868 69.5186 35.0962 69.5254 35.1988C69.8229 35.1475 70.2777 35.0655 71.1496 34.9731C71.943 34.8877 72.2404 34.8671 72.4798 34.85L72.6063 36.0468C72.6234 36.211 72.5858 36.3477 72.4593 36.4606L72.4866 36.505L72.8867 36.3854C72.9072 36.3785 72.9038 36.358 72.9004 36.3375L72.514 32.7403C72.514 32.7403 72.5106 32.7061 72.4901 32.7061L72.0729 32.6719L72.0592 32.7197H72.0626Z" fill="#1E1E1E"/>
<path id="Vector_55" d="M71.2419 39.4702C72.254 39.2924 72.9071 38.6735 72.9345 37.7913C72.9413 37.5793 72.9174 37.3605 72.849 37.1211L72.8011 37.1416C72.8285 37.2442 72.8422 37.3468 72.8388 37.4459C72.8114 38.3487 71.5838 39.0873 70.6025 39.0565C70.1511 39.0428 69.8639 38.9881 69.669 38.9607C69.669 39.0633 69.6826 39.1727 69.6792 39.2753C69.6792 39.3779 69.6587 39.4839 69.6484 39.5831C69.8331 39.5728 70.1203 39.5523 70.5956 39.566C71.2932 39.5865 72.1036 40.1268 72.5173 40.7457C72.6644 40.9885 72.7499 41.2347 72.743 41.4569C72.743 41.5458 72.7259 41.6245 72.6951 41.7031L72.7396 41.7305C72.8011 41.5766 72.8388 41.4193 72.8422 41.2654C72.8661 40.479 72.1856 39.7404 71.2419 39.4737" fill="#1E1E1E"/>
<path id="Vector_56" d="M50.8591 49.0482C50.8591 49.0482 50.8591 49.041 50.8555 49.041L50.8591 49.0482Z" fill="white"/>
<path id="Vector_57" d="M33.9313 41.8088C37.2926 39.2921 34.7691 35.4863 34.7691 35.4863C32.5054 38.3176 32.6114 39.6033 33.9313 41.8088Z" fill="white"/>
<path id="Vector_58" d="M30.2128 38.5437C33.3176 35.7159 30.4419 32.1699 30.4419 32.1699C28.4586 35.2029 28.6877 36.475 30.2128 38.5437Z" fill="white"/>
<path id="Vector_59" d="M40.8182 42.6024C42.08 40.7867 42.2441 39.6925 40.466 37.1348C40.466 37.1348 38.0827 40.2499 40.8182 42.6024Z" fill="white"/>
<path id="Vector_60" d="M43.5496 39.6068C44.7942 37.815 44.9584 36.7345 43.2042 34.2109C43.2042 34.2109 40.8516 37.285 43.5496 39.6068Z" fill="white"/>
<path id="Vector_61" d="M19.3008 39.3977C19.3008 39.3977 23.0929 40.1739 24.0059 36.7305C23.5682 36.6621 23.1784 36.6211 22.8194 36.6211C21.4106 36.6211 20.501 37.2605 19.3008 39.3977Z" fill="white"/>
<path id="Vector_62" d="M17.3203 37.4468C17.3203 37.4468 20.6782 38.1341 21.4852 35.0874C21.0988 35.0259 20.7534 34.9883 20.4354 34.9883C19.1873 34.9883 18.3838 35.5559 17.3203 37.4468Z" fill="white"/>
<path id="Vector_63" d="M59.8315 30.4625C59.8315 30.4625 62.1807 31.3174 63.0868 29.2042C62.6697 29.0743 62.3106 28.9922 61.9824 28.9922C61.2574 28.9922 60.6659 29.3786 59.8281 30.4591" fill="white"/>
<path id="Vector_64" d="M34.0149 15.6678C33.5567 14.3376 33.0575 13.8384 31.0742 13.7871C31.0742 13.7871 31.7752 16.1875 34.0149 15.6678Z" fill="white"/>
<path id="Vector_65" d="M40.6094 15.3596C42.5858 15.5408 43.1397 15.1031 43.7484 13.8345C43.4372 13.7217 43.15 13.6738 42.8867 13.6738C41.324 13.6738 40.6094 15.3596 40.6094 15.3596Z" fill="white"/>
<path id="Vector_66" d="M29.4805 22.6598C29.4805 22.6598 31.8296 23.5147 32.7392 21.4015C32.322 21.2715 31.963 21.1895 31.6347 21.1895C30.9098 21.1895 30.3182 21.5758 29.4805 22.6564" fill="white"/>
<path id="Vector_67" d="M12.5039 31.5026C12.5039 31.5026 14.0803 33.4414 15.9438 32.0942C15.3625 31.4445 14.8907 31.0957 14.176 31.0957C13.7383 31.0957 13.2049 31.2291 12.5039 31.5026Z" fill="white"/>
<path id="Vector_68" d="M15.3867 35.7499C15.3867 35.7499 18.1086 36.3072 18.7617 33.8384C18.4471 33.7905 18.1667 33.7598 17.9103 33.7598C16.8981 33.7598 16.2484 34.218 15.3867 35.7499Z" fill="white"/>
<path id="Vector_69" d="M13.8008 34.5602C13.8008 34.5602 15.979 35.0048 16.5021 33.0283C16.2525 32.9907 16.0268 32.9668 15.8217 32.9668C15.0113 32.9668 14.4915 33.3327 13.8042 34.5602" fill="white"/>
<path id="Vector_70" d="M18.9018 32.3508C20.4816 30.3436 18.3957 28.5039 18.3957 28.5039C17.5101 30.5248 17.7768 31.2634 18.9018 32.3508Z" fill="white"/>
<path id="Vector_71" d="M16.799 31.8763C18.0607 30.2692 16.3955 28.7988 16.3955 28.7988C15.6877 30.4162 15.8997 31.0044 16.799 31.8763Z" fill="white"/>
<path id="Vector_72" d="M18.8867 28.303C20.8905 28.7099 21.4547 26.5625 21.4547 26.5625C19.6937 26.6548 19.2594 27.1096 18.8867 28.303Z" fill="white"/>
<path id="Vector_73" d="M21.2476 33.1519C23.1966 30.6728 20.6252 28.4023 20.6252 28.4023C19.531 30.8951 19.8627 31.8081 21.2476 33.1519Z" fill="white"/>
<path id="Vector_74" d="M23.958 34.4644C25.9071 31.9853 23.3357 29.7148 23.3357 29.7148C22.2449 32.2076 22.5698 33.1206 23.958 34.4644Z" fill="white"/>
<path id="Vector_75" d="M25.7695 32.8033C27.852 34.0274 29.3086 31.8424 29.3086 31.8424C28.676 31.6612 28.1768 31.5723 27.7596 31.5723C26.8637 31.5723 26.3679 31.9894 25.7695 32.8033Z" fill="white"/>
<path id="Vector_76" d="M41.2773 47.4004C43.3598 48.6212 44.8164 46.4362 44.8164 46.4362C44.1838 46.2549 43.6812 46.166 43.2674 46.166C42.3716 46.166 41.8757 46.5832 41.2773 47.397" fill="white"/>
<path id="Vector_77" d="M16.7461 26.75C18.8285 27.9742 20.2852 25.7858 20.2852 25.7858C19.6526 25.6045 19.1534 25.5156 18.7396 25.5156C17.8437 25.5156 17.3479 25.9328 16.7495 26.75" fill="white"/>
<path id="Vector_78" d="M38.1836 20.7601C40.5396 21.297 41.2645 18.7734 41.2645 18.7734C39.1821 18.835 38.6555 19.3616 38.1836 20.7601Z" fill="white"/>
<path id="Vector_79" d="M37.0355 20.7328C36.5499 19.3376 36.0199 18.8145 33.9375 18.7734C33.9375 18.7734 34.6864 21.2901 37.0355 20.7328Z" fill="white"/>
<path id="Vector_80" d="M38.1758 18.225C40.5318 18.7618 41.2567 16.2383 41.2567 16.2383C39.1743 16.2998 38.6511 16.8264 38.1758 18.225Z" fill="white"/>
<path id="Vector_81" d="M37.0238 18.1976C36.5382 16.8025 36.0082 16.2793 33.9258 16.2383C33.9258 16.2383 34.6746 18.755 37.0238 18.1976Z" fill="white"/>
<path id="Vector_82" d="M28.4609 26.849C28.4609 26.849 30.4134 28.1792 31.7367 26.4558C31.2204 26.1378 30.8032 25.9531 30.3621 25.9531C29.8321 25.9531 29.2679 26.2198 28.4609 26.8524" fill="white"/>
<path id="Vector_83" d="M32.0376 25.9293C33.0635 24.8624 33.2857 24.1546 32.3796 22.2773C32.3796 22.2773 30.4749 24.0862 32.0376 25.9293Z" fill="white"/>
<path id="Vector_84" d="M30.9102 28.7372C30.9102 28.7372 32.8626 30.0673 34.186 28.3405C33.6696 28.0225 33.2525 27.8379 32.8114 27.8379C32.2813 27.8379 31.7171 28.1046 30.9102 28.7372Z" fill="white"/>
<path id="Vector_85" d="M32.7969 31.181C32.7969 31.181 34.7494 32.5112 36.0727 30.7878C35.5563 30.4698 35.1392 30.2852 34.6981 30.2852C34.1681 30.2852 33.6039 30.5519 32.7969 31.181Z" fill="white"/>
<path id="Vector_86" d="M38.1992 23.2582C40.5552 23.795 41.2801 21.2715 41.2801 21.2715C39.1977 21.333 38.6745 21.8562 38.1992 23.2582Z" fill="white"/>
<path id="Vector_87" d="M36.8089 23.4847C36.3234 22.0896 35.7934 21.5664 33.7109 21.5254C33.7109 21.5254 34.4598 24.0421 36.8089 23.4847Z" fill="white"/>
<path id="Vector_88" d="M38.207 26.182C40.563 26.7188 41.2879 24.1953 41.2879 24.1953C39.2055 24.2569 38.6789 24.7835 38.207 26.182Z" fill="white"/>
<path id="Vector_89" d="M15.9922 45.3628C18.8406 46.0125 19.7228 42.959 19.7228 42.959C17.2027 43.0308 16.5666 43.6668 15.9922 45.3628Z" fill="white"/>
<path id="Vector_90" d="M31.0547 19.9562C32.9627 20.3905 33.5509 18.3457 33.5509 18.3457C31.8651 18.3936 31.4377 18.821 31.0547 19.9562Z" fill="white"/>
<path id="Vector_91" d="M36.8246 26.4125C36.339 25.0173 35.809 24.4942 33.7266 24.4531C33.7266 24.4531 34.4754 26.9698 36.8246 26.4125Z" fill="white"/>
<path id="Vector_92" d="M38.5158 33.0632C40.4854 32.3793 40.8273 31.7194 40.8581 30.2422C38.4508 30.4405 38.5158 33.0632 38.5158 33.0632Z" fill="white"/>
<path id="Vector_93" d="M43.8963 27.9444C45.3119 25.9885 43.2773 24.3301 43.2773 24.3301C42.5148 26.2723 42.7952 26.9596 43.8963 27.9444Z" fill="white"/>
<path id="Vector_94" d="M45.8299 25.8331C47.2455 23.8772 45.2109 22.2188 45.2109 22.2188C44.4484 24.161 44.7288 24.8483 45.8299 25.8331Z" fill="white"/>
<path id="Vector_95" d="M25.3416 22.3839C26.7572 20.4279 24.7227 18.7695 24.7227 18.7695C23.9601 20.7118 24.2405 21.3991 25.3416 22.3839Z" fill="white"/>
<path id="Vector_96" d="M46.9886 20.6469C46.2295 22.5823 46.5099 23.2696 47.6109 24.2544C48.9719 22.3737 47.1425 20.7666 47.0023 20.6469C47.1151 20.6572 47.2348 20.6606 47.3613 20.6572C47.1767 19.4022 46.8142 18.8791 45.0703 18.5098C45.0703 18.5098 45.2686 20.4725 46.992 20.6469" fill="white"/>
<path id="Vector_97" d="M28.2026 23.4307C28.8113 24.8224 29.3105 25.0344 30.3842 24.9728C30.1551 23.5538 28.8455 23.4238 28.3702 23.4238C28.2642 23.4238 28.1992 23.4307 28.1992 23.4307" fill="white"/>
<path id="Vector_98" d="M46.8386 37.2845C48.0833 35.4927 48.2474 34.4122 46.4933 31.8887C46.4933 31.8887 44.1407 34.9627 46.8386 37.2845Z" fill="white"/>
<path id="Vector_99" d="M43.4688 43.9128C45.0656 46.8706 48.3722 45.3216 48.3722 45.3216C47.1207 43.9743 46.2487 43.4512 45.2947 43.4512C44.7442 43.4512 44.1629 43.6256 43.4688 43.9128Z" fill="white"/>
<path id="Vector_100" d="M27.668 45.8553C27.668 45.8553 30.9882 47.3769 32.5612 44.4055C31.8739 44.1285 31.2994 43.9609 30.7523 43.9609C29.788 43.9609 28.9161 44.4875 27.668 45.8553Z" fill="white"/>
<path id="Vector_101" d="M53.9995 43.3146C55.4733 46.0433 58.5234 44.614 58.5234 44.614C57.3711 43.3693 56.5641 42.8906 55.6819 42.8906C55.1724 42.8906 54.6389 43.0513 53.9961 43.3146" fill="white"/>
<path id="Vector_102" d="M53.0234 41.9315C56.1146 42.1606 56.5523 38.8164 56.5523 38.8164C53.9193 39.2951 53.3551 40.0611 53.0234 41.9315Z" fill="white"/>
<path id="Vector_103" d="M20.0156 40.7012C20.0156 40.7012 21.274 43.3273 23.7531 42.3083C23.1273 41.1457 22.5699 40.6055 21.1816 40.6055C20.8465 40.6055 20.4601 40.6362 20.0156 40.6978" fill="white"/>
<path id="Vector_104" d="M23.2109 39.3951C23.2109 39.3951 24.4693 42.0212 26.9484 41.0056C26.3226 39.8396 25.7652 39.3027 24.377 39.3027C24.0419 39.3027 23.6589 39.3335 23.2109 39.3951Z" fill="white"/>
<path id="Vector_105" d="M49.5117 40.3944C52.6029 40.6235 53.044 37.2793 53.044 37.2793C50.411 37.758 49.8468 38.524 49.5117 40.3944Z" fill="white"/>
<path id="Vector_106" d="M51.0647 45.738C51.6016 43.4572 51.1844 42.7357 49.7996 41.8125C48.5344 44.2164 51.0647 45.738 51.0647 45.738Z" fill="white"/>
<path id="Vector_107" d="M43.5999 23.6696C44.1368 21.3889 43.7196 20.664 42.3347 19.7441C41.0695 22.148 43.5999 23.6696 43.5999 23.6696Z" fill="white"/>
<path id="Vector_108" d="M24.7607 47.4109C26.4498 45.7832 26.4875 44.9489 25.8207 43.4238C23.4579 44.7608 24.7607 47.4109 24.7607 47.4109Z" fill="white"/>
<path id="Vector_109" d="M54.0257 47.2595C54.5625 44.9787 54.1454 44.2538 52.7605 43.334C51.4953 45.7378 54.0257 47.2595 54.0257 47.2595Z" fill="white"/>
<path id="Vector_110" d="M56.1602 32.9287C56.7859 35.9652 60.1198 35.4728 60.1198 35.4728C59.118 33.428 58.3212 32.8809 56.9398 32.8809C56.697 32.8809 56.4405 32.898 56.1602 32.9253" fill="white"/>
<path id="Vector_111" d="M43.7031 31.1813C44.8623 32.6175 46.4934 31.4481 46.4934 31.4481C45.8129 30.942 45.3342 30.7266 44.8965 30.7266C44.5067 30.7266 44.1477 30.8941 43.7065 31.1813" fill="white"/>
<path id="Vector_112" d="M14.668 38.468C16.0699 40.2051 18.0429 38.7894 18.0429 38.7894C17.2189 38.1774 16.641 37.9141 16.1075 37.9141C15.6391 37.9141 15.2048 38.1158 14.668 38.4646" fill="white"/>
<path id="Vector_113" d="M16.0859 41.1184C17.4879 42.8555 19.4609 41.4398 19.4609 41.4398C18.6368 40.8278 18.0589 40.5645 17.5255 40.5645C17.0571 40.5645 16.6228 40.7696 16.0859 41.1184Z" fill="white"/>
<path id="Vector_114" d="M40.7065 34.0399C42.2453 35.0589 43.4455 33.4552 43.4455 33.4552C42.9121 33.2705 42.5017 33.1816 42.1632 33.1816C41.5477 33.1816 41.1682 33.4791 40.7031 34.0433" fill="white"/>
<path id="Vector_115" d="M55.9454 31.8384C57.0396 30.2894 57.19 29.3457 55.6821 27.1367C55.6821 27.1367 53.6133 29.797 55.9454 31.8384Z" fill="white"/>
<path id="Vector_116" d="M58.8008 31.7111C59.9394 34.2585 62.7741 33.1814 62.7741 33.1814C61.7552 31.9025 61.0371 31.4375 60.172 31.4375C59.7651 31.4375 59.324 31.5401 58.8008 31.7111Z" fill="white"/>
<path id="Vector_117" d="M58.4424 30.7982C59.4272 29.4031 59.564 28.555 58.2031 26.5684C58.2031 26.5684 56.3395 28.962 58.4424 30.7982Z" fill="white"/>
<path id="Vector_118" d="M49.2012 29.0453C49.6525 27.7357 49.567 27.0484 48.0591 25.8105C48.0591 25.8105 47.1529 28.0947 49.2012 29.0453Z" fill="white"/>
<path id="Vector_119" d="M53.4375 33.2876C54.5318 31.7386 54.6822 30.7949 53.1743 28.5859C53.1743 28.5859 51.1055 31.2462 53.4375 33.2876Z" fill="white"/>
<path id="Vector_120" d="M38.4297 29.049C40.1394 29.049 40.9088 28.6728 41.7499 26.416C41.7499 26.416 41.7226 26.416 41.6781 26.416C41.2165 26.416 38.693 26.5323 38.4331 29.0524" fill="white"/>
<path id="Vector_121" d="M18.9453 46.6657C21.6193 46.5358 22.2792 45.8485 22.8503 44.0396C22.5836 43.9849 22.334 43.9609 22.098 43.9609C19.6668 43.9609 18.9453 46.6691 18.9453 46.6691" fill="white"/>
<path id="Vector_122" d="M61.6839 41.1898C61.1984 39.7947 60.6684 39.2715 58.5859 39.2305C58.5859 39.2305 59.3348 41.7472 61.6839 41.1898Z" fill="white"/>
<path id="Vector_123" d="M60.5039 36.2352C60.5039 36.2352 62.1452 37.3909 63.2907 35.9445C62.8496 35.6641 62.4906 35.5 62.1076 35.5C61.6631 35.5 61.1844 35.7223 60.5039 36.2352Z" fill="white"/>
<path id="Vector_124" d="M59.7188 38.157C59.7188 38.157 61.3601 39.3128 62.5056 37.8664C62.0645 37.586 61.7054 37.4219 61.3225 37.4219C60.8779 37.4219 60.3992 37.6441 59.7188 38.157Z" fill="white"/>
<path id="Vector_125" d="M56.4844 40.8487C57.0725 42.6507 57.7393 43.3346 60.4133 43.4406C60.4133 43.4406 59.6713 40.7598 57.264 40.7598C57.0212 40.7598 56.7613 40.7871 56.4844 40.8487Z" fill="white"/>
<path id="Vector_126" d="M45.8555 29.2774C45.8555 29.2774 46.9941 31.8693 49.4356 30.9597C48.8406 29.7561 48.2935 29.2227 46.8061 29.2227C46.5257 29.2227 46.2111 29.2432 45.8555 29.2774Z" fill="white"/>
<path id="Vector_127" d="M50.391 30.6475C52.8598 29.8166 52.1109 27.0879 52.1109 27.0879C50.2268 28.3155 50.0388 29.0917 50.391 30.6475Z" fill="white"/>
<path id="Vector_128" d="M39.1918 15.2198C41.6606 14.3889 40.9117 11.6602 40.9117 11.6602C39.0276 12.8877 38.8396 13.6639 39.1918 15.2198Z" fill="white"/>
<path id="Vector_129" d="M35.7404 15.3662C35.7404 15.3662 36.4653 12.6307 33.9897 11.8203C33.6546 13.3796 33.8461 14.1558 35.7404 15.3662Z" fill="white"/>
<path id="Vector_130" d="M16.4727 22.5234C17.1805 24.6572 17.8849 25.0367 19.4783 25.0914C19.3074 22.5508 16.5958 22.5234 16.4761 22.5234H16.4727Z" fill="white"/>
<path id="Vector_131" d="M53.9023 34.5215C54.4426 37.575 57.7902 37.175 57.7902 37.175C56.8088 35.0276 56.0053 34.4941 54.5281 34.4941C54.3332 34.4941 54.1246 34.5044 53.9023 34.5215Z" fill="white"/>
<path id="Vector_132" d="M25.7423 30.9771C27.8521 29.8042 26.71 27.4414 26.71 27.4414C25.1986 28.8776 25.161 29.6196 25.7423 30.9771Z" fill="white"/>
<path id="Vector_133" d="M23.9216 22.2336C24.7115 19.2348 21.5041 18.1953 21.5041 18.1953C21.4904 20.8693 22.1435 21.5669 23.9216 22.2336Z" fill="white"/>
<path id="Vector_134" d="M52.0625 21.8853C53.9295 22.2306 54.8459 21.9707 56.2205 19.6729C56.2205 19.6729 55.841 19.584 55.3109 19.584C54.2714 19.584 52.6438 19.9191 52.0659 21.8818" fill="white"/>
<path id="Vector_135" d="M37.5238 16.252C39.7841 14.1285 37.6162 11.5469 37.6162 11.5469C36.1868 13.8105 36.3715 14.744 37.5238 16.252Z" fill="white"/>
<path id="Vector_136" d="M22.2461 27.6587C22.2461 27.6587 24.6055 29.1256 26.0758 27.0364C25.4843 26.7047 25.0056 26.5098 24.5132 26.5098C23.8669 26.5098 23.2001 26.8483 22.2495 27.6587" fill="white"/>
<path id="Vector_137" d="M20.9648 25.7544C20.9648 25.7544 23.3242 27.2213 24.7946 25.1321C24.2065 24.8004 23.7243 24.6055 23.2319 24.6055C22.5856 24.6055 21.9189 24.9406 20.9683 25.7544" fill="white"/>
<path id="Vector_138" d="M20.2812 25.3343C20.2812 25.3343 22.0593 23.9563 20.8864 22.25C19.9221 23.0707 19.6691 23.6554 20.2812 25.3343Z" fill="white"/>
<path id="Vector_139" d="M56.3984 26.1381C56.3984 26.1381 58.1458 27.1092 59.1305 25.5534C58.7236 25.3516 58.3851 25.2285 58.0534 25.2285C57.5645 25.2285 57.0857 25.4884 56.3984 26.1381Z" fill="white"/>
<path id="Vector_140" d="M56.3242 25.3823C57.757 25.3174 58.3895 24.972 59.0085 23.0469C59.0085 23.0469 56.461 23.0469 56.3242 25.3823Z" fill="white"/>
<path id="Vector_141" d="M52.5386 25.6828C53.879 27.5498 55.9888 26.2128 55.9888 26.2128C55.1305 25.4948 54.5321 25.1973 53.9542 25.1973C53.5063 25.1973 53.072 25.3785 52.5352 25.6828" fill="white"/>
<path id="Vector_142" d="M55.8667 25.2357C56.2907 24.0389 56.2086 22.9754 55.2341 22.1582C54.0749 23.8748 55.8667 25.2357 55.8667 25.2357Z" fill="white"/>
<path id="Vector_143" d="M27.8081 21.2862C29.723 22.0009 30.6155 19.9663 30.6155 19.9663C30.3385 19.939 30.0923 19.9219 29.87 19.9219C28.7006 19.9219 28.2731 20.3425 27.8047 21.2862" fill="white"/>
<path id="Vector_144" d="M26.0039 19.2724C27.8709 20.8043 29.649 18.8723 29.649 18.8723C28.8591 18.5064 28.2744 18.332 27.7854 18.332C27.1084 18.332 26.6126 18.6637 26.0039 19.269" fill="white"/>
<path id="Vector_145" d="M28.6205 17.7578C29.2599 15.2342 26.5586 14.3828 26.5586 14.3828C26.5689 16.6328 27.1228 17.2107 28.6205 17.7578Z" fill="white"/>
<path id="Vector_146" d="M29.5044 18.076C29.5044 18.076 31.4739 16.992 30.5815 15.125C29.5009 15.7849 29.159 16.3218 29.5044 18.076Z" fill="white"/>
<path id="Vector_147" d="M30.1289 18.8538C30.1289 18.8538 32.3686 19.0556 32.673 17.0107C32.5738 17.0073 32.4746 17.0039 32.3857 17.0039C31.3154 17.0039 30.7718 17.339 30.1289 18.8538Z" fill="white"/>
<path id="Vector_148" d="M45.8383 21.8154C45.4724 20.1672 44.9732 19.8321 43.7866 19.668C43.7217 21.6239 45.8383 21.8154 45.8383 21.8154Z" fill="white"/>
<path id="Vector_149" d="M44.0689 19.1934C43.9185 17.4359 43.4466 17.0187 42.243 16.6836C41.9044 18.6976 44.0689 19.1934 44.0689 19.1934Z" fill="white"/>
<path id="Vector_150" d="M44.9577 18.0401C45.4604 16.0158 45.0979 15.3695 43.8772 14.5352C42.7248 16.6586 44.9577 18.0401 44.9577 18.0401Z" fill="white"/>
<path id="Vector_151" d="M45.7266 16.9528C48.3253 17.1032 48.6502 14.2891 48.6502 14.2891C46.4446 14.7267 45.9796 15.3764 45.7266 16.9528Z" fill="white"/>
<path id="Vector_152" d="M45.7188 17.7443C45.7188 17.7443 47.1583 19.4745 48.8202 18.2435C48.297 17.6691 47.873 17.3613 47.2404 17.3613C46.8403 17.3613 46.3582 17.4844 45.7188 17.7443Z" fill="white"/>
<path id="Vector_153" d="M26.335 24.6914C28.4585 23.5425 27.3437 21.166 27.3437 21.166C25.8187 22.5851 25.7708 23.3271 26.335 24.6914Z" fill="white"/>
<path id="Vector_154" d="M48.8984 25.3004C49.9106 27.6461 52.5196 26.6921 52.5196 26.6921C51.5895 25.4953 50.933 25.0645 50.1294 25.0645C49.7636 25.0645 49.3669 25.1534 48.8984 25.3004Z" fill="white"/>
<path id="Vector_155" d="M50.6992 23.8988C52.6449 25.5538 54.5632 23.5466 54.5632 23.5466C53.7117 23.1329 53.0894 22.9414 52.5662 22.9414C51.8687 22.9414 51.3455 23.2833 50.6992 23.8988Z" fill="white"/>
<path id="Vector_156" d="M49.521 23.0055C50.5434 21.9352 50.7657 21.2308 49.8561 19.3535C49.8561 19.3535 47.9549 21.1658 49.521 23.0055Z" fill="white"/>
</g>
</svg>
