<svg width="21" height="21" viewBox="0 0 21 21" fill="none" xmlns="http://www.w3.org/2000/svg">
<g id="Instagram">
<path id="Path 3" fill-rule="evenodd" clip-rule="evenodd" d="M10.2914 1.84197C11.6619 1.79073 13.0342 1.82881 14.3997 1.95596C15.0621 1.9475 15.7203 2.06314 16.34 2.29687C17.1949 2.694 17.882 3.37907 18.2803 4.23151C18.5147 4.84937 18.6307 5.50562 18.6222 6.16615C18.6222 7.18994 18.7365 7.53191 18.7365 10.2624C18.7879 11.6288 18.7497 12.9971 18.6222 14.3586C18.6307 15.0191 18.5147 15.6754 18.2803 16.2932C17.882 17.1457 17.1949 17.8307 16.34 18.2279C15.7203 18.4616 15.0621 18.5772 14.3997 18.5688C13.3729 18.5688 13.0299 18.6828 10.2914 18.6828C8.92099 18.734 7.54866 18.6959 6.1832 18.5688C5.52073 18.5772 4.86255 18.4616 4.24288 18.2279C3.38793 17.8307 2.70086 17.1457 2.30256 16.2932C2.06815 15.6754 1.95217 15.0191 1.96065 14.3586C1.96065 13.3348 1.84633 12.9928 1.84633 10.2624C1.79524 8.89557 1.83378 7.5269 1.9617 6.16511C1.95321 5.50457 2.0692 4.84832 2.30361 4.23047C2.50295 3.80851 2.77325 3.4237 3.10281 3.09269C3.37041 2.69467 3.77732 2.41051 4.24393 2.29583C4.8636 2.0621 5.52178 1.94645 6.18425 1.95491C7.54971 1.82776 8.92204 1.78969 10.2925 1.84093M10.2914 0.0213172C8.88326 -0.0286755 7.47332 0.00939477 6.06993 0.135304C5.21217 0.133265 4.36126 0.287428 3.55905 0.590206C2.86644 0.815332 2.23957 1.20594 1.73305 1.72798C1.20948 2.23301 0.817725 2.85806 0.591938 3.54864C0.233615 4.33239 0.0768127 5.19282 0.135701 6.05217C0.00942234 7.45146 -0.0287597 8.85726 0.0213797 10.2613C-0.0288036 11.6657 0.00937849 13.0719 0.135701 14.4715C0.133656 15.3268 0.288271 16.1752 0.591938 16.975C0.817725 17.6656 1.20948 18.2907 1.73305 18.7957C2.23968 19.3174 2.86655 19.7076 3.55905 19.9324C4.36126 20.2352 5.21217 20.3894 6.06993 20.3873C7.47367 20.5133 8.88396 20.5514 10.2925 20.5013C11.701 20.5514 13.1113 20.5133 14.515 20.3873C15.3728 20.3894 16.2237 20.2352 17.0259 19.9324C17.7133 19.6963 18.3377 19.3072 18.8518 18.7946C19.3659 18.282 19.7562 17.6594 19.993 16.974C20.2967 16.1741 20.4513 15.3257 20.4493 14.4705C20.4493 13.3327 20.5636 12.9918 20.5636 10.2603C20.6138 8.85587 20.5756 7.44971 20.4493 6.05008C20.4513 5.19483 20.2967 4.3464 19.993 3.54655C19.7672 2.85596 19.3755 2.23092 18.8519 1.72589C18.3449 1.20446 17.7176 0.814577 17.0249 0.590206C16.2227 0.287428 15.3717 0.133265 14.514 0.135304C13.1102 0.00935105 11.7 -0.0287193 10.2914 0.0213172ZM10.2914 5.02733C9.59979 5.0166 8.91304 5.14452 8.27194 5.40349C7.63083 5.66246 7.04844 6.04721 6.55932 6.5349C6.0702 7.02259 5.68432 7.60328 5.42459 8.24251C5.16486 8.88174 5.03657 9.56648 5.04733 10.2561C5.04733 11.2902 5.35489 12.3012 5.93112 13.161C6.50735 14.0209 7.32636 14.6911 8.2846 15.0868C9.24283 15.4826 10.2972 15.5861 11.3145 15.3844C12.3318 15.1826 13.2662 14.6846 13.9996 13.9534C14.733 13.2221 15.2324 12.2904 15.4348 11.2762C15.6371 10.2619 15.5333 9.21056 15.1363 8.25513C14.7394 7.2997 14.0673 6.48308 13.2049 5.90854C12.3425 5.33399 11.3286 5.02733 10.2914 5.02733ZM10.2914 13.6747C9.8396 13.6829 9.39074 13.6002 8.97167 13.4316C8.5526 13.263 8.17192 13.0118 7.85238 12.6932C7.53283 12.3746 7.28098 11.9951 7.11186 11.5772C6.94274 11.1594 6.85983 10.7118 6.86808 10.2613C6.85983 9.81081 6.94274 9.36326 7.11186 8.94542C7.28098 8.52758 7.53283 8.14801 7.85238 7.8294C8.17192 7.51079 8.5526 7.25967 8.97167 7.09105C9.39074 6.92243 9.8396 6.83976 10.2914 6.84798C10.7433 6.83976 11.1921 6.92243 11.6112 7.09105C12.0303 7.25967 12.4109 7.51079 12.7305 7.8294C13.05 8.14801 13.3019 8.52758 13.471 8.94542C13.6401 9.36326 13.723 9.81081 13.7148 10.2613C13.723 10.7118 13.6401 11.1594 13.471 11.5772C13.3019 11.9951 13.05 12.3746 12.7305 12.6932C12.4109 13.0118 12.0303 13.263 11.6112 13.4316C11.1921 13.6002 10.7433 13.6829 10.2914 13.6747ZM15.7694 3.54864C15.5205 3.54864 15.2772 3.62224 15.0702 3.76013C14.8632 3.89802 14.7019 4.09401 14.6066 4.32331C14.5114 4.55261 14.4865 4.80493 14.535 5.04836C14.5836 5.29179 14.7034 5.51539 14.8795 5.69089C15.0555 5.86639 15.2797 5.98591 15.5239 6.03433C15.768 6.08275 16.0211 6.0579 16.2511 5.96292C16.481 5.86794 16.6776 5.70709 16.8159 5.50073C16.9542 5.29436 17.028 5.05174 17.028 4.80354C17.0261 4.47131 16.8929 4.15324 16.6572 3.91831C16.4216 3.68339 16.1026 3.55056 15.7694 3.54864Z" fill="white"/>
</g>
</svg>
