<svg width="14" height="13" viewBox="0 0 14 13" fill="none" xmlns="http://www.w3.org/2000/svg">
<path d="M3.70758 12.1029H0.896484V3.87406H3.70758V12.1029ZM2.30259 2.77688C1.52504 2.77688 0.896484 2.16191 0.896484 1.40486C0.896484 0.647807 1.52617 0.0339355 2.30259 0.0339355C3.07733 0.0339355 3.70758 0.648904 3.70758 1.40486C3.70758 2.16191 3.07733 2.77688 2.30259 2.77688ZM13.8275 12.1029H11.1249V8.0982C11.1249 7.14311 11.1064 5.91481 9.71995 5.91481C8.31271 5.91481 8.09626 6.95494 8.09626 8.02908V12.1029H5.39424V3.86803H7.98831V4.99318H8.02486C8.3858 4.34585 9.26792 3.6634 10.5835 3.6634C13.3215 3.6634 13.8275 5.36897 13.8275 7.58637V12.1029Z" fill="white"/>
</svg>
