<svg width="18" height="19" viewBox="0 0 18 19" fill="none" xmlns="http://www.w3.org/2000/svg">
<g id="Group">
<path id="Vector" d="M17 8.58972C16.7348 8.58972 16.4804 8.69508 16.2929 8.88262C16.1054 9.07015 16 9.3245 16 9.58972V15.5897C16 15.8549 15.8946 16.1093 15.7071 16.2968C15.5196 16.4844 15.2652 16.5897 15 16.5897H3C2.73478 16.5897 2.48043 16.4844 2.29289 16.2968C2.10536 16.1093 2 15.8549 2 15.5897V3.58972C2 3.32451 2.10536 3.07015 2.29289 2.88262C2.48043 2.69508 2.73478 2.58972 3 2.58972H9C9.26522 2.58972 9.51957 2.48436 9.70711 2.29683C9.89464 2.10929 10 1.85494 10 1.58972C10 1.32451 9.89464 1.07015 9.70711 0.882615C9.51957 0.695078 9.26522 0.589722 9 0.589722H3C2.20435 0.589722 1.44129 0.905792 0.87868 1.4684C0.316071 2.03101 0 2.79407 0 3.58972V15.5897C0 16.3854 0.316071 17.1484 0.87868 17.711C1.44129 18.2737 2.20435 18.5897 3 18.5897H15C15.7956 18.5897 16.5587 18.2737 17.1213 17.711C17.6839 17.1484 18 16.3854 18 15.5897V9.58972C18 9.3245 17.8946 9.07015 17.7071 8.88262C17.5196 8.69508 17.2652 8.58972 17 8.58972Z" fill="#4F2683"/>
<path id="Vector_2" d="M12.9999 2.58972H14.5799L8.28994 8.86972C8.19621 8.96268 8.12182 9.07329 8.07105 9.19514C8.02028 9.317 7.99414 9.44771 7.99414 9.57972C7.99414 9.71173 8.02028 9.84244 8.07105 9.9643C8.12182 10.0862 8.19621 10.1968 8.28994 10.2897C8.3829 10.3834 8.4935 10.4578 8.61536 10.5086C8.73722 10.5594 8.86793 10.5855 8.99994 10.5855C9.13195 10.5855 9.26266 10.5594 9.38452 10.5086C9.50638 10.4578 9.61698 10.3834 9.70994 10.2897L15.9999 4.00972V5.58972C15.9999 5.85494 16.1053 6.10929 16.2928 6.29683C16.4804 6.48436 16.7347 6.58972 16.9999 6.58972C17.2652 6.58972 17.5195 6.48436 17.707 6.29683C17.8946 6.10929 17.9999 5.85494 17.9999 5.58972V1.58972C17.9999 1.32451 17.8946 1.07015 17.707 0.882615C17.5195 0.695078 17.2652 0.589722 16.9999 0.589722H12.9999C12.7347 0.589722 12.4804 0.695078 12.2928 0.882615C12.1053 1.07015 11.9999 1.32451 11.9999 1.58972C11.9999 1.85494 12.1053 2.10929 12.2928 2.29683C12.4804 2.48436 12.7347 2.58972 12.9999 2.58972Z" fill="#4F2683"/>
</g>
</svg>
