<svg width="18" height="22" viewBox="0 0 18 22" fill="none" xmlns="http://www.w3.org/2000/svg">
<path id="Vector" d="M17.2031 4.95297C17.4219 5.17007 17.6094 5.46472 17.7656 5.8369C17.9219 6.20908 18 6.55024 18 6.86039V20.2589C18 20.569 17.8906 20.8327 17.6719 21.0498C17.4531 21.2669 17.1875 21.3754 16.875 21.3754H1.125C0.8125 21.3754 0.546875 21.2669 0.328125 21.0498C0.109375 20.8327 0 20.569 0 20.2589V1.64987C0 1.33972 0.109375 1.07609 0.328125 0.858983C0.546875 0.641878 0.8125 0.533325 1.125 0.533325H11.625C11.9375 0.533325 12.2812 0.610863 12.6562 0.765938C13.0312 0.921013 13.3281 1.1071 13.5469 1.32421L17.2031 4.95297ZM12 2.11509V6.48821H16.4062C16.3281 6.26335 16.2422 6.1044 16.1484 6.01136L12.4805 2.37097C12.3867 2.27792 12.2266 2.19263 12 2.11509ZM16.5 19.8867V7.97693H11.625C11.3125 7.97693 11.0469 7.86838 10.8281 7.65128C10.6094 7.43417 10.5 7.17054 10.5 6.86039V2.02205H1.5V19.8867H16.5ZM10.4766 12.9897C10.7344 13.1913 11.0625 13.4084 11.4609 13.6411C11.9219 13.5868 12.3789 13.5596 12.832 13.5596C13.9805 13.5596 14.6719 13.7496 14.9062 14.1295C15.0312 14.3001 15.0391 14.5017 14.9297 14.7343C14.9297 14.7421 14.9258 14.7498 14.918 14.7576L14.8945 14.7809V14.7925C14.8477 15.0871 14.5703 15.2345 14.0625 15.2345C13.6875 15.2345 13.2383 15.1569 12.7148 15.0018C12.1914 14.8468 11.6836 14.6413 11.1914 14.3854C9.46484 14.5715 7.93359 14.8933 6.59766 15.3508C5.40234 17.3822 4.45703 18.398 3.76172 18.398C3.64453 18.398 3.53516 18.3708 3.43359 18.3166L3.15234 18.177C3.14453 18.1693 3.12109 18.1499 3.08203 18.1189C3.00391 18.0413 2.98047 17.9017 3.01172 17.7001C3.08203 17.39 3.30078 17.0353 3.66797 16.6359C4.03516 16.2366 4.55078 15.8625 5.21484 15.5136C5.32422 15.4438 5.41406 15.4671 5.48438 15.5834C5.5 15.5989 5.50781 15.6144 5.50781 15.6299C5.91406 14.9708 6.33203 14.2071 6.76172 13.3387C7.29297 12.2841 7.69922 11.2684 7.98047 10.2914C7.79297 9.65562 7.67383 9.03726 7.62305 8.43634C7.57227 7.83543 7.59766 7.34113 7.69922 6.95344C7.78516 6.64329 7.94922 6.48821 8.19141 6.48821H8.44922C8.62891 6.48821 8.76562 6.54637 8.85938 6.66267C9 6.8255 9.03516 7.08913 8.96484 7.45356C8.94922 7.50008 8.93359 7.53109 8.91797 7.5466C8.92578 7.56986 8.92969 7.60088 8.92969 7.63965V7.98856C8.91406 8.94228 8.85938 9.68664 8.76562 10.2216C9.19531 11.4933 9.76562 12.416 10.4766 12.9897ZM3.72656 17.7699C4.13281 17.5838 4.66797 16.9713 5.33203 15.9323C4.93359 16.2424 4.5918 16.5681 4.30664 16.9093C4.02148 17.2504 3.82812 17.5373 3.72656 17.7699ZM8.39062 7.06974C8.27344 7.3954 8.26562 7.90715 8.36719 8.60499C8.375 8.55071 8.40234 8.38013 8.44922 8.09324C8.44922 8.06998 8.47656 7.90327 8.53125 7.59312C8.53906 7.56211 8.55469 7.53109 8.57812 7.50008C8.57031 7.49232 8.56641 7.48457 8.56641 7.47682C8.55859 7.46131 8.55469 7.44968 8.55469 7.44193C8.54688 7.27134 8.49609 7.13177 8.40234 7.02322C8.40234 7.03098 8.39844 7.03873 8.39062 7.04648V7.06974ZM6.9375 14.7576C7.99219 14.3389 9.10156 14.0249 10.2656 13.8155C10.25 13.8078 10.1992 13.7709 10.1133 13.705C10.0273 13.6391 9.96484 13.5868 9.92578 13.548C9.33203 13.0285 8.83594 12.3462 8.4375 11.501C8.22656 12.1678 7.90234 12.9316 7.46484 13.7923C7.23047 14.2265 7.05469 14.5482 6.9375 14.7576ZM14.5078 14.5715C14.3203 14.3854 13.7734 14.2924 12.8672 14.2924C13.4609 14.5095 13.9453 14.618 14.3203 14.618C14.4297 14.618 14.5 14.6142 14.5312 14.6064C14.5312 14.5986 14.5234 14.587 14.5078 14.5715Z" fill="#4F2683"/>
</svg>
