<svg width="24" height="25" viewBox="0 0 24 25" fill="none" xmlns="http://www.w3.org/2000/svg">
<g id="search">
<mask id="mask0_601_12497" style="mask-type:alpha" maskUnits="userSpaceOnUse" x="0" y="0" width="24" height="25">
<rect id="Bounding box" y="0.533325" width="24" height="24" fill="#D9D9D9"/>
</mask>
<g mask="url(#mask0_601_12497)">
<path id="search_2" d="M19.6 21.5333L13.3 15.2333C12.8 15.6333 12.225 15.95 11.575 16.1833C10.925 16.4167 10.2333 16.5333 9.5 16.5333C7.68333 16.5333 6.14583 15.9042 4.8875 14.6458C3.62917 13.3875 3 11.85 3 10.0333C3 8.21666 3.62917 6.67916 4.8875 5.42083C6.14583 4.16249 7.68333 3.53333 9.5 3.53333C11.3167 3.53333 12.8542 4.16249 14.1125 5.42083C15.3708 6.67916 16 8.21666 16 10.0333C16 10.7667 15.8833 11.4583 15.65 12.1083C15.4167 12.7583 15.1 13.3333 14.7 13.8333L21 20.1333L19.6 21.5333ZM9.5 14.5333C10.75 14.5333 11.8125 14.0958 12.6875 13.2208C13.5625 12.3458 14 11.2833 14 10.0333C14 8.78333 13.5625 7.72083 12.6875 6.84583C11.8125 5.97083 10.75 5.53333 9.5 5.53333C8.25 5.53333 7.1875 5.97083 6.3125 6.84583C5.4375 7.72083 5 8.78333 5 10.0333C5 11.2833 5.4375 12.3458 6.3125 13.2208C7.1875 14.0958 8.25 14.5333 9.5 14.5333Z" fill="#4F2683"/>
</g>
</g>
</svg>
